<svg height="100%" viewBox="0 0 402 251" width="100%" xmlns="http://www.w3.org/2000/svg"
     xmlns:xlink="http://www.w3.org/1999/xlink"
     preserveAspectRatio="xMidYMid meet">
  <defs>
    <rect height="218" id="fac-a" rx="4" width="367"></rect>
    <mask fill="#fff" height="218" id="fac-d" width="367" x="0"
          y="0">
      <use xlink:href="#fac-a"></use>
    </mask>
    <rect height="180" id="fac-b" rx="4" width="345"></rect>
    <mask fill="#fff" height="180" id="fac-e" width="345" x="0"
          y="0">
      <use xlink:href="#fac-b"></use>
    </mask>
    <linearGradient id="fac-f" x1="0%" x2="0%" y1="31.325%"
                    y2="0%">
      <stop offset="0%" stop-color="#FFF" stop-opacity=".739"></stop>
      <stop offset="100%" stop-color="#FFF" stop-opacity="0"></stop>
    </linearGradient>
    <linearGradient id="fac-g" x1="14.641%" x2="77.092%" y1="0%"
                    y2="79.931%">
      <stop offset="0%" stop-color="#0CBFD6" class="docs-svg-primary-light-40-stop-color"></stop>
      <stop offset="100%" stop-color="#05BED5" class="docs-svg-primary-light-30-stop-color"
            stop-opacity=".152"></stop>
    </linearGradient>
    <path d="M16.24 7.76C15.07 6.59 13.54 6 12 6v6l-4.24 4.24c2.34 2.34 6.14 2.34 8.49 0 2.34-2.34 2.34-6.14-.01-8.48zM12 2C6.48 2 2 6.48 2 12s4.48 10 10 10 10-4.48 10-10S17.52 2 12 2zm0 18c-4.42 0-8-3.58-8-8s3.58-8 8-8 8 3.58 8 8-3.58 8-8 8z"
          id="fac-c"></path>
    <mask fill="#fff" height="116.116" id="fac-h" width="117.428"
          x="0" y="0">
      <use xlink:href="#fac-c"></use>
    </mask>
    <mask fill="#fff" height="116.116" id="fac-i" width="117.428"
          x="0" y="0">
      <use xlink:href="#fac-c"></use>
    </mask>
  </defs>
  <g transform="translate(16 19)" fill="none" fill-rule="evenodd">
    <use xlink:href="#fac-a" mask="url(#fac-d)" fill="#FFF"
         stroke="#00BCD4" class="docs-svg-primary-light-20-stroke"
         stroke-width="2.2"></use>
    <path d="M338 18h14v-2h-14v2zm0-4h14v-2h-14v2zm0-6v2h14V8h-14z"
          fill="#89E0EB" class="docs-svg-primary-fill"></path>
    <g transform="translate(12 9)" fill="#89E0EB" class="docs-svg-primary-fill">
      <ellipse cx="2.471" cy="2.5" rx="2.471" ry="2.5"></ellipse>
      <ellipse cx="10.294" cy="2.5" rx="2.471" ry="2.5"></ellipse>
      <ellipse cx="18.529" cy="2.5" rx="2.471" ry="2.5"></ellipse>
    </g>
    <use xlink:href="#fac-b" mask="url(#fac-e)" fill="#e9f7fb"
         class="docs-svg-primary-light-60-fill" stroke="#00BCD4"
         stroke-width="2.2" stroke-opacity=".449" transform="translate(10 25)"></use>
    <g transform="translate(123 56) scale(5)"
       stroke="#0CBFD6" stroke-width="13.041">
      <use xlink:href="#fac-c" mask="url(#fac-i)"></use>
    </g>
  </g>
</svg>