<svg xmlns="http://www.w3.org/2000/svg" viewBox="0 0 24 24">
  <path fill-rule="evenodd" clip-rule="evenodd" fill="none"
        d="M0 0h24v24H0z" />
  <path d="M 10.5 1 C 9.12 1 8 2.12 8 3.5 L 8 5 L 4 5 C 2.9 5 2.0097656 5.9 2.0097656 7 L 2.0097656 10.800781 L 3.5 10.800781 C 4.99 10.800781 6.1992187 12.01 6.1992188 13.5 C 6.1992188 14.99 4.99 16.199219 3.5 16.199219 L 2 16.199219 L 2 20 C 2 21.1 2.9 22 4 22 L 7.8007812 22 L 7.8007812 20.5 C 7.8007812 19.01 9.01 17.800781 10.5 17.800781 C 11.99 17.800781 13.199219 19.01 13.199219 20.5 L 13.199219 22 L 16.302734 22 C 14.316889 20.62319 13 18.206353 13 15.666016 L 13 12 L 18.5 9.5546875 L 19 9.7773438 L 19 7 C 19 5.9 18.1 5 17 5 L 13 5 L 13 3.5 C 13 2.12 11.88 1 10.5 1 z "/>
  <path fill="#1B5E20" d="M 18.500001,11 14,13 v 2.999999 C 14,18.775001 15.920001,21.37 18.500001,22 21.079999,21.37 23,18.775001 23,15.999999 V 13 Z M 17.5,19 15.500001,17 16.205,16.295001 l 1.295,1.289998 3.295,-3.294998 0.704999,0.709998 z"/>
</svg>