<svg xmlns="http://www.w3.org/2000/svg" viewBox="0 0 24 24">
  <path d="M 4,4 C 2.9,4 2.0097656,4.9 2.0097656,6 L 2,18 c 0,1.1 0.9,2 2,2 H 14.367188 C 13.951268,19.384383 13.605933,18.715941 13.375,18 H 4 v -4 h 9 V 13 H 4 V 9 h 11 v 2.111328 l 1,-0.445312 V 9 h 4 v 1.220703 l 2,0.890625 V 6 C 22,4.9 21.1,4 20,4 Z"/>
  <path fill="#1B5E20" d="M 18.500001,11 14,13 v 2.999999 C 14,18.775001 15.920001,21.37 18.500001,22 21.079999,21.37 23,18.775001 23,15.999999 V 13 Z M 17.5,19 15.500001,17 16.205,16.295001 l 1.295,1.289998 3.295,-3.294998 0.704999,0.709998 z"/>
  <path d="M0 0h24v24H0z" fill="none"/>
</svg>